<svg width="29" height="28" viewBox="0 0 29 28" fill="none" xmlns="http://www.w3.org/2000/svg">
<path d="M5.75 17.9031H4.5C3.83696 17.9031 3.20107 17.6637 2.73223 17.2377C2.26339 16.8116 2 16.2337 2 15.6312V4.27187C2 3.66933 2.26339 3.09147 2.73223 2.66541C3.20107 2.23936 3.83696 2 4.5 2H24.5C25.163 2 25.7989 2.23936 26.2678 2.66541C26.7366 3.09147 27 3.66933 27 4.27187V15.6312C27 16.2337 26.7366 16.8116 26.2678 17.2377C25.7989 17.6637 25.163 17.9031 24.5 17.9031H23.25" stroke="white" stroke-width="3" stroke-linecap="round" stroke-linejoin="round"/>
<path d="M14.25 19L20.5 25.8156H8L14.25 19Z" stroke="white" stroke-width="3" stroke-linecap="round" stroke-linejoin="round"/>
</svg>
